<svg width="116" height="116" xmlns="http://www.w3.org/2000/svg"><g fill-rule="nonzero" fill="none"><path d="M58 115.5h1a1.5 1.5 0 100-3h-1a1.5 1.5 0 000 3zm11.238-1.098l.981-.194a1.5 1.5 0 00-.583-2.943l-.981.194a1.5 1.5 0 00.583 2.943zm10.813-3.283l.924-.383a1.5 1.5 0 00-1.151-2.77l-.924.383a1.5 1.5 0 101.151 2.77zm9.93-5.327l.831-.557a1.5 1.5 0 00-1.67-2.491l-.831.556a1.5 1.5 0 001.67 2.492zm8.737-7.192l.706-.709a1.5 1.5 0 10-2.125-2.118l-.706.708a1.5 1.5 0 002.125 2.119zm7.182-8.78l.554-.833a1.5 1.5 0 00-2.497-1.662l-.554.832a1.5 1.5 0 002.497 1.663zm5.268-9.885l.381-.924a1.5 1.5 0 10-2.773-1.145l-.381.924a1.5 1.5 0 002.773 1.145zm3.261-10.834l.192-.982a1.5 1.5 0 10-2.944-.576l-.192.982a1.5 1.5 0 102.944.576zm1.07-11.272l-.002-1a1.5 1.5 0 10-3 .008l.003 1a1.5 1.5 0 003-.008zm-1.131-11.237l-.197-.98a1.5 1.5 0 10-2.941.591l.197.98a1.5 1.5 0 102.941-.591zm-3.314-10.8l-.387-.922a1.5 1.5 0 10-2.766 1.16l.386.921a1.5 1.5 0 002.767-1.16zm-5.355-9.913l-.56-.829a1.5 1.5 0 00-2.487 1.678l.56.83a1.5 1.5 0 002.487-1.679zm-7.222-8.718l-.71-.704a1.5 1.5 0 00-2.112 2.13l.71.704a1.5 1.5 0 102.112-2.13zm-8.802-7.157l-.834-.552a1.5 1.5 0 00-1.654 2.503l.834.551a1.5 1.5 0 101.654-2.502zm-9.897-5.236l-.925-.38a1.5 1.5 0 10-1.137 2.777l.925.38a1.5 1.5 0 001.137-2.777zm-10.842-3.23l-.982-.188a1.5 1.5 0 10-.568 2.946l.982.189a1.5 1.5 0 10.568-2.946zM57.66.502l-1 .006a1.5 1.5 0 00.018 3l1-.006a1.5 1.5 0 00-.018-3zM46.427 1.665l-.98.2a1.5 1.5 0 00.601 2.94l.98-.2a1.5 1.5 0 10-.601-2.94zM35.636 5.012l-.922.389a1.5 1.5 0 101.168 2.763l.921-.389a1.5 1.5 0 10-1.167-2.763zm-9.9 5.386l-.827.562a1.5 1.5 0 001.685 2.482l.827-.562a1.5 1.5 0 10-1.685-2.482zm-8.693 7.244l-.702.712a1.5 1.5 0 102.137 2.106l.702-.713a1.5 1.5 0 10-2.137-2.105zm-7.131 8.823l-.55.835a1.5 1.5 0 002.508 1.648l.549-.836a1.5 1.5 0 10-2.507-1.647zm-5.208 9.914l-.376.927a1.5 1.5 0 002.78 1.128l.375-.926a1.5 1.5 0 10-2.78-1.129zM1.507 47.23l-.186.983a1.5 1.5 0 102.948.559l.186-.983a1.5 1.5 0 00-2.948-.558zM.502 58.509l.009 1a1.5 1.5 0 103-.026l-.009-1a1.5 1.5 0 10-3 .026zM1.7 69.738l.203.979a1.5 1.5 0 102.938-.61l-.203-.979a1.5 1.5 0 00-2.938.61zM5.078 80.52l.392.92a1.5 1.5 0 102.76-1.176l-.392-.92a1.5 1.5 0 10-2.76 1.176zm5.415 9.882l.564.825a1.5 1.5 0 002.477-1.692l-.564-.826a1.5 1.5 0 10-2.477 1.693zm7.272 8.674l.714.7a1.5 1.5 0 002.1-2.143l-.715-.7a1.5 1.5 0 00-2.1 2.143zm8.844 7.106l.838.547a1.5 1.5 0 101.64-2.512l-.838-.547a1.5 1.5 0 00-1.64 2.512zm9.923 5.175l.927.373a1.5 1.5 0 101.12-2.782l-.927-.374a1.5 1.5 0 10-1.12 2.783zm10.863 3.166l.983.183a1.5 1.5 0 00.55-2.949l-.983-.183a1.5 1.5 0 00-.55 2.949z" fill="#C0C6D3"/><g fill="#2E71F2"><path d="M40 37h15v25H40V37zm2 2v21h11V39H42zM40 65h15v14H40V65zm2 2v10h11V67H42zM59 37h17v14H59V37zm2 2v10h13V39H61zM59 54h17v25H59V54zm2 2v21h13V56H61z"/></g></g></svg>